<svg width="16" height="16" viewBox="0 0 16 16" fill="none" xmlns="http://www.w3.org/2000/svg">
<path d="M8.00001 1.33333C4.32401 1.33333 1.33334 4.32399 1.33334 7.99999C1.33334 11.676 4.32401 14.6667 8.00001 14.6667C11.676 14.6667 14.6667 11.676 14.6667 7.99999C14.6667 4.32399 11.676 1.33333 8.00001 1.33333ZM8.00001 13.3333C5.05934 13.3333 2.66668 10.9407 2.66668 7.99999C2.66668 5.05933 5.05934 2.66666 8.00001 2.66666C10.9407 2.66666 13.3333 5.05933 13.3333 7.99999C13.3333 10.9407 10.9407 13.3333 8.00001 13.3333Z" fill="#B10000"/>
<path d="M8.66668 4.66667H7.33334V8.66667H11.3333V7.33334H8.66668V4.66667Z" fill="#B10000"/>
</svg>
