<svg width="16" height="16" viewBox="0 0 16 16" fill="none" xmlns="http://www.w3.org/2000/svg">
<path d="M8.00001 1.33325C4.32401 1.33325 1.33334 4.32392 1.33334 7.99992C1.33334 11.6759 4.32401 14.6666 8.00001 14.6666C11.676 14.6666 14.6667 11.6759 14.6667 7.99992C14.6667 4.32392 11.676 1.33325 8.00001 1.33325ZM8.00001 13.3333C5.05934 13.3333 2.66668 10.9406 2.66668 7.99992C2.66668 5.05925 5.05934 2.66659 8.00001 2.66659C10.9407 2.66659 13.3333 5.05925 13.3333 7.99992C13.3333 10.9406 10.9407 13.3333 8.00001 13.3333Z" fill="#00B140"/>
<path d="M8.66668 4.66675H7.33334V8.66675H11.3333V7.33341H8.66668V4.66675Z" fill="#00B140"/>
</svg>
