<svg width="104" height="24" viewBox="0 0 104 24" fill="none" xmlns="http://www.w3.org/2000/svg">
<path d="M13.3819 4.50458L8.91039 12.1888L11.1454 16.0301H6.7079L4.47593 12.1956H4.46858L2.23816 16.0286L2.24277 16.0369V16.0407L4.47776 19.8813H4.48243H8.95245L8.94783 19.8738H8.95245H13.3869H17.8585H22.3202L24.556 16.0325L26.7993 12.1934L22.3278 4.50918H13.3847L13.3819 4.50458ZM15.6184 8.34742H20.0832H20.0894L22.3251 12.1895L22.3205 12.1948L22.3159 12.1881L20.0884 16.0317H15.6169L13.3811 12.1896L15.6184 8.34742Z" fill="#212322"/>
<path d="M4.46298 4.50069L2.22644 8.34431L2.23105 8.35181L-0.00012207 12.1856L2.23642 16.0263L4.47141 12.1856V12.1841L6.7072 8.34202H6.69872L8.93376 4.50067H4.46369L4.46298 4.50069Z" fill="#00B140"/>
<path d="M31.2708 12.1843L26.8085 19.8683H31.2709L33.5075 16.0255L31.2708 12.1843Z" fill="#00B140"/>
<path d="M26.8126 4.5022L29.0476 8.34357H29.0391L31.2749 12.1856L33.51 16.027L35.7465 12.1864L33.5153 8.35109L33.5191 8.34422L31.2826 4.50061H26.8133L26.8126 4.5022Z" fill="#212322"/>
<path d="M68.217 5.33276C66.7414 5.33276 65.4413 5.61114 64.3173 6.16887C63.1928 6.7092 62.3227 7.48506 61.708 8.49598C61.1106 9.48946 60.8125 10.6573 60.8125 11.9994C60.8125 13.3763 61.1192 14.5704 61.7344 15.5813C62.3491 16.5748 63.2105 17.3413 64.3173 17.8816C65.4413 18.4045 66.7414 18.666 68.217 18.666C69.6927 18.666 70.9836 18.4045 72.0904 17.8816C73.2144 17.3413 74.0846 16.5748 74.6997 15.5813C75.3144 14.5704 75.6215 13.3763 75.6215 11.9994C75.6215 10.6573 75.3144 9.48946 74.6997 8.49598C74.0846 7.48506 73.2144 6.7092 72.0904 6.16887C70.9836 5.61114 69.6927 5.33276 68.217 5.33276ZM68.217 7.9209C69.4465 7.9209 70.413 8.28668 71.1158 9.01872C71.8359 9.73331 72.1959 10.727 72.1959 11.9994C72.1959 13.202 71.8359 14.1864 71.1158 14.9533C70.3952 15.7027 69.4292 16.0779 68.217 16.0779C67.0049 16.0779 66.0384 15.7027 65.3183 14.9533C64.5978 14.1864 64.2382 13.202 64.2382 11.9994C64.2382 10.727 64.589 9.73331 65.2919 9.01872C66.012 8.28668 66.9872 7.9209 68.217 7.9209Z" fill="#212322"/>
<path d="M49.9525 5.33276C48.6699 5.33276 47.5195 5.61114 46.5004 6.16887C45.4991 6.7092 44.7083 7.48506 44.1286 8.49598C43.5666 9.48946 43.2852 10.6486 43.2852 11.9732C43.2852 13.2804 43.5666 14.4395 44.1286 15.4505C44.7083 16.4614 45.4991 17.2541 46.5004 17.8292C47.5195 18.387 48.6699 18.666 49.9525 18.666C50.9188 18.666 51.8233 18.5356 52.6666 18.2741C53.5275 17.9952 54.2564 17.5852 54.8539 17.0448V23.9993H58.174V5.72466H54.9587V7.24115C54.2736 6.59625 53.5276 6.11687 52.7194 5.80314C51.9111 5.48941 50.9888 5.33276 49.9525 5.33276ZM50.7688 7.9209C51.7174 7.9209 52.5611 8.17372 53.299 8.67916C54.0368 9.1846 54.5553 9.86434 54.8539 10.7184V13.2542C54.5726 14.1083 54.0545 14.7967 53.299 15.3196C52.5611 15.8251 51.7174 16.0779 50.7688 16.0779C49.5743 16.0779 48.5908 15.694 47.818 14.9271C47.0451 14.1602 46.6581 13.1759 46.6581 11.9732C46.6581 10.7706 47.0451 9.79437 47.818 9.04488C48.5908 8.2954 49.5743 7.9209 50.7688 7.9209Z" fill="#212322"/>
<path d="M95.3828 5.72729H98.5977V7.7404C99.107 7.06065 99.8275 6.55521 100.758 6.22404C101.707 5.89287 102.787 5.72729 104 5.72729V8.23715C102.717 8.23715 101.602 8.43759 100.653 8.83845C99.7221 9.22191 99.0719 9.83193 98.703 10.6686V18.2765H95.3828V5.72729Z" fill="#212322"/>
<path d="M83.9954 18.6673C82.7128 18.6673 81.5624 18.3889 80.5434 17.8312C79.5421 17.2908 78.7512 16.515 78.1715 15.5041C77.6095 14.5106 77.3281 13.3515 77.3281 12.0268C77.3281 10.7196 77.6095 9.56052 78.1715 8.54959C78.7512 7.53867 79.5421 6.74596 80.5434 6.17079C81.5624 5.61306 82.7128 5.33404 83.9954 5.33404C84.9618 5.33404 85.8663 5.46449 86.7096 5.72594C87.5705 6.00482 88.2994 6.41489 88.8968 6.95521V0.000732422H92.2169V18.2754H89.0016V16.7589C88.3165 17.4038 87.5705 17.8832 86.7623 18.1969C85.954 18.5106 85.0318 18.6673 83.9954 18.6673ZM84.8118 16.0792C85.7604 16.0792 86.6041 15.8263 87.3419 15.3209C88.0798 14.8155 88.5983 14.1357 88.8968 13.2816V10.7458C88.6156 9.89178 88.0975 9.20332 87.3419 8.68044C86.6041 8.175 85.7604 7.92218 84.8118 7.92218C83.6173 7.92218 82.6337 8.30607 81.8609 9.07295C81.0881 9.83984 80.701 10.8242 80.701 12.0268C80.701 13.2295 81.0881 14.2057 81.8609 14.9552C82.6337 15.7047 83.6173 16.0792 84.8118 16.0792Z" fill="#212322"/>
</svg>
